<?xml version="1.0" encoding="UTF-8"?>
<svg width="24" height="24" viewBox="0 0 24 24" fill="none" xmlns="http://www.w3.org/2000/svg">
  <path d="M12 14C13.66 14 15 12.66 15 11V5C15 3.34 13.66 2 12 2C10.34 2 9 3.34 9 5V11C9 12.66 10.34 14 12 14Z" fill="currentColor"/>
  <path d="M17 11C17 14.53 14.39 17.44 11 17.93V21H13C13.55 21 14 21.45 14 22C14 22.55 13.55 23 13 23H11C10.45 23 10 22.55 10 22C10 21.45 10.45 21 11 21H13V17.93C9.61 17.44 7 14.53 7 11C7 10.45 7.45 10 8 10C8.55 10 9 10.45 9 11C9 13.76 11.24 16 14 16C16.76 16 19 13.76 19 11C19 10.45 19.45 10 20 10C20.55 10 21 10.45 21 11C21 14.53 18.39 17.44 15 17.93V21H17C17.55 21 18 21.45 18 22C18 22.55 17.55 23 17 23H15C14.45 23 14 22.55 14 22C14 21.45 14.45 21 15 21H17V17.93Z" fill="currentColor"/>
</svg> 